<svg width="64" height="64" viewBox="0 0 64 64" fill="none" xmlns="http://www.w3.org/2000/svg">
  <defs>
    <linearGradient id="bg" x1="3" y1="3" x2="61" y2="61" gradientUnits="userSpaceOnUse"><stop stop-color="#FFFFFF"/><stop offset=".55" stop-color="#F7FBFF"/><stop offset="1" stop-color="#F2ECFF"/></linearGradient>
    <linearGradient id="fold" x1="42" y1="11" x2="52" y2="22" gradientUnits="userSpaceOnUse"><stop stop-color="#8B5CF6"/><stop offset="1" stop-color="#6D5DFB"/></linearGradient>
    <linearGradient id="node" x1="17" y1="43" x2="46" y2="34" gradientUnits="userSpaceOnUse"><stop stop-color="#0EA5E9"/><stop offset=".52" stop-color="#3B82F6"/><stop offset="1" stop-color="#8B5CF6"/></linearGradient>
    <linearGradient id="line" x1="19" y1="41" x2="46" y2="41" gradientUnits="userSpaceOnUse"><stop stop-color="#0EA5E9"/><stop offset="1" stop-color="#8B5CF6"/></linearGradient>
  </defs>
  <rect x="2.5" y="2.5" width="59" height="59" rx="18" fill="url(#bg)" stroke="#CBD5E1" stroke-opacity=".35"/>
  <path d="M8 44C19 34 26 38 37 30C48 22 50 19 58 18V61H8V44Z" fill="#DBEAFE" fill-opacity=".34"/>
  <path d="M18 11h24l10 10v27c0 3.3-2.7 6-6 6H18c-3.3 0-6-2.7-6-6V17c0-3.3 2.7-6 6-6Z" fill="white" fill-opacity=".94" stroke="#CBD5E1" stroke-opacity=".28"/>
  <path d="M42 11v7.4c0 1.6 1.3 2.9 2.9 2.9H52L42 11Z" fill="url(#fold)"/>
  <rect x="20" y="21" width="18" height="3.2" rx="1.6" fill="#6D8DFB" fill-opacity=".78"/>
  <rect x="20" y="28" width="13" height="3.2" rx="1.6" fill="#A5B4FC" fill-opacity=".62"/>
  <path d="M22 43L32 36L44 43" stroke="url(#line)" stroke-width="3.2" stroke-linecap="round" stroke-linejoin="round"/>
  <path d="M32 39V49" stroke="url(#line)" stroke-width="3.2" stroke-linecap="round"/>
  <circle cx="32" cy="36" r="8.2" fill="#6366F1" fill-opacity=".16"/>
  <circle cx="32" cy="36" r="5.7" fill="url(#node)"/>
  <circle cx="20" cy="44" r="4.2" fill="#0EA5E9"/>
  <circle cx="45" cy="44" r="4.2" fill="#8B5CF6"/>
  <circle cx="32" cy="51" r="4.2" fill="#3B82F6"/>
</svg>
